<svg width="20" height="20" viewBox="0 0 20 20" fill="none" xmlns="http://www.w3.org/2000/svg">
<path fill-rule="evenodd" clip-rule="evenodd" d="M16.9136 10C16.9136 6.18174 13.8183 3.08643 10 3.08643C6.18174 3.08643 3.08643 6.18174 3.08643 10C3.08643 13.8183 6.18174 16.9136 10 16.9136C13.8183 16.9136 16.9136 13.8183 16.9136 10ZM6.58727 5.62303C7.52861 4.88803 8.71316 4.45006 10 4.45006C11.2869 4.45006 12.4714 4.88803 13.4127 5.62303L10 9.03577L6.58727 5.62303ZM5.62303 6.58727C4.88803 7.52861 4.45006 8.71316 4.45006 10C4.45006 11.2869 4.88803 12.4714 5.62303 13.4127L9.03577 10L5.62303 6.58727ZM10 10.9642L6.58727 14.377C7.5286 15.112 8.71316 15.55 10 15.55C11.2869 15.55 12.4714 15.112 13.4127 14.377L10 10.9642ZM14.377 13.4127C15.112 12.4714 15.5499 11.2869 15.5499 10C15.5499 8.71316 15.112 7.5286 14.377 6.58727L10.9642 10L14.377 13.4127Z" fill="#B91036"/>
</svg>
