<svg width="16" height="16" viewBox="0 0 16 16" fill="none" xmlns="http://www.w3.org/2000/svg">
<path fill-rule="evenodd" clip-rule="evenodd" d="M11.0084 1.46578C10.0129 0.973053 8.91419 0.713135 7.77979 0.713135C3.75533 0.713135 0.492859 3.97561 0.492859 8.00007C0.492859 12.0245 3.75533 15.287 7.77979 15.287C11.8043 15.287 15.0667 12.0245 15.0667 8.00007C15.0667 7.62351 14.7615 7.31825 14.3849 7.31825C14.0083 7.31825 13.7031 7.62351 13.7031 8.00007C13.7031 11.2714 11.0511 13.9234 7.77979 13.9234C4.50844 13.9234 1.8565 11.2714 1.8565 8.00007C1.8565 4.72872 4.50844 2.07677 7.77979 2.07677C8.70318 2.07677 9.59503 2.28775 10.4035 2.68791C10.741 2.85494 11.15 2.71677 11.317 2.37929C11.484 2.04181 11.3459 1.63282 11.0084 1.46578ZM15.2617 1.75182C14.9724 1.51077 14.5425 1.54988 14.3014 1.83918L7.96522 9.44357L7.9297 9.4774C7.89078 9.50674 7.84252 9.52225 7.7928 9.5204C7.7265 9.51793 7.6651 9.48487 7.62654 9.43088L5.69254 6.72364L5.62796 6.64595C5.39721 6.40673 5.01996 6.36619 4.74141 6.56518C4.43501 6.78406 4.36406 7.2099 4.58295 7.5163L6.51693 10.2235L6.60708 10.3381C6.89189 10.6677 7.30235 10.8667 7.742 10.8831C8.23049 10.9013 8.69983 10.6921 9.0128 10.3165L15.3491 2.71209L15.4079 2.62995C15.5809 2.34619 15.5247 1.97095 15.2617 1.75182Z" fill="#308138"/>
</svg>
