<svg width="18" height="20" viewBox="0 0 18 20" fill="none" xmlns="http://www.w3.org/2000/svg">
<path fill-rule="evenodd" clip-rule="evenodd" d="M9.00008 -3.05176e-05C11.8598 -3.05176e-05 14.1779 2.29353 14.1779 5.12266C14.1779 7.9518 11.8598 10.2454 9.00008 10.2454C6.1404 10.2454 3.82227 7.9518 3.82227 5.12266C3.82227 2.29353 6.1404 -3.05176e-05 9.00008 -3.05176e-05ZM9.00015 1.71005C7.0954 1.71005 5.55121 3.23787 5.55121 5.12264C5.55121 7.00741 7.0954 8.53523 9.00015 8.53523C10.9049 8.53523 12.4491 7.00741 12.4491 5.12264C12.4491 3.23787 10.9049 1.71005 9.00015 1.71005ZM0.125 19.145C0.125 14.2956 4.09842 10.3643 9 10.3643C13.9016 10.3643 17.875 14.2956 17.875 19.145C17.875 19.6171 17.488 20 17.0106 20C16.5331 20 16.1461 19.6171 16.1461 19.145C16.1461 15.2399 12.9466 12.0744 9 12.0744C5.05335 12.0744 1.85387 15.2399 1.85387 19.145C1.85387 19.6171 1.4669 20 0.989437 20C0.511972 20 0.125 19.6171 0.125 19.145Z" fill="white"/>
</svg>
